# xmcd
#
# Track frame offsets:
# 150
# 26573
# 53050
# 74208
# 97877
# 119575
# 140490
# 160487
# 194929
# 214575
# 236786
# 265342
#
# Disc length: 3552 seconds
#
# Revision: 0
# Processed by: cddbd v1.4PL0 Copyright (c) Steve Scherf et al.
# Submitted via: Axialis_AX_CDPlayer 2.6
#
DISCID=c00dde0c
DTITLE=Alan Johnston and Jessi Shumate - The McDowell County Project
DYEAR=1900
DGENRE=
TTITLE0=Baby Boy
TTITLE1=Pure Mountain Love
TTITLE2=Rocket Boy
TTITLE3=Sid
TTITLE4=January Florida Blues
TTITLE5=Havaco
TTITLE6=Back In The Good Old Days
TTITLE7=Two Dimes And A Nickel
TTITLE8=Come On Home To McDowell County
TTITLE9=The River Ran Black
TTITLE10=Prelude To A Flood - Muddy Water
TTITLE11=Hunky Dune Bug
EXTD=http://www.mcdowellwv.com/mcdowell_county_project.html
EXTT0=Alan Johnston
EXTT1=Stacy Grubb
EXTT2=Jessi Shumate
EXTT3=Jessi Shumate (Nathan Lawson on banjo)
EXTT4=Becki Burks
EXTT5=Alan Johnston
EXTT6=Alan Johnston
EXTT7=Stacy Grubb
EXTT8=Becki Burks (Charlie Davis on dobro)
EXTT9=Alan Johnston
EXTT10=Jessi Shumate
EXTT11=Alan Johnston
PLAYORDER=
